<mxfile host="app.diagrams.net" modified="2024-01-20T09:58:10.039Z" agent="Mozilla/5.0 (Windows NT 10.0; Win64; x64) AppleWebKit/537.36 (KHTML, like Gecko) Chrome/121.0.0.0 Safari/537.36 Edg/121.0.0.0/8mqHiSuL-56" etag="YlxbHURgnn7q-H1nl81h" version="22.1.17" type="github" pages="2">
  <diagram name="Page-1" id="0V4Y5ZXLhWTfrrC21tAs">
    <mxGraphModel dx="1826" dy="751" grid="0" gridSize="10" guides="1" tooltips="1" connect="1" arrows="1" fold="1" page="0" pageScale="1" pageWidth="850" pageHeight="1100" math="0" shadow="0">
      <root>
        <mxCell id="0" />
        <mxCell id="1" parent="0" />
        <mxCell id="L4blVacPG_ALHI0_2lzW-24" value="" style="rounded=1;whiteSpace=wrap;html=1;fontSize=16;" parent="1" vertex="1">
          <mxGeometry x="430" y="146" width="120" height="60" as="geometry" />
        </mxCell>
        <mxCell id="L4blVacPG_ALHI0_2lzW-1" value="" style="rounded=1;whiteSpace=wrap;html=1;fontSize=16;" parent="1" vertex="1">
          <mxGeometry x="-55" y="146" width="120" height="60" as="geometry" />
        </mxCell>
        <mxCell id="L4blVacPG_ALHI0_2lzW-2" value="You" style="text;strokeColor=none;fillColor=none;html=1;align=center;verticalAlign=middle;whiteSpace=wrap;rounded=0;fontSize=16;" parent="1" vertex="1">
          <mxGeometry x="-25" y="161" width="60" height="30" as="geometry" />
        </mxCell>
        <mxCell id="L4blVacPG_ALHI0_2lzW-3" value="Table&lt;br&gt;(object)" style="rounded=1;whiteSpace=wrap;html=1;fontSize=16;" parent="1" vertex="1">
          <mxGeometry x="138" y="146" width="120" height="60" as="geometry" />
        </mxCell>
        <mxCell id="L4blVacPG_ALHI0_2lzW-5" value="" style="endArrow=classic;html=1;rounded=0;fontSize=12;startSize=8;endSize=8;curved=1;exitX=1;exitY=0.5;exitDx=0;exitDy=0;" parent="1" source="L4blVacPG_ALHI0_2lzW-1" edge="1">
          <mxGeometry relative="1" as="geometry">
            <mxPoint x="86" y="175.5" as="sourcePoint" />
            <mxPoint x="138" y="176" as="targetPoint" />
          </mxGeometry>
        </mxCell>
        <mxCell id="L4blVacPG_ALHI0_2lzW-6" value="own" style="edgeLabel;resizable=0;html=1;align=center;verticalAlign=middle;fontSize=16;" parent="L4blVacPG_ALHI0_2lzW-5" connectable="0" vertex="1">
          <mxGeometry relative="1" as="geometry" />
        </mxCell>
        <mxCell id="L4blVacPG_ALHI0_2lzW-7" value="OWNERSHIP" style="text;strokeColor=none;fillColor=none;html=1;align=center;verticalAlign=middle;whiteSpace=wrap;rounded=0;fontSize=16;" parent="1" vertex="1">
          <mxGeometry x="168" y="206" width="60" height="30" as="geometry" />
        </mxCell>
        <mxCell id="L4blVacPG_ALHI0_2lzW-13" value="ALL" style="text;strokeColor=none;fillColor=none;html=1;align=center;verticalAlign=middle;whiteSpace=wrap;rounded=0;fontSize=16;" parent="1" vertex="1">
          <mxGeometry x="460" y="208" width="60" height="30" as="geometry" />
        </mxCell>
        <mxCell id="L4blVacPG_ALHI0_2lzW-16" value="" style="endArrow=classic;html=1;rounded=0;fontSize=12;startSize=8;endSize=8;curved=1;entryX=0;entryY=0.5;entryDx=0;entryDy=0;" parent="1" edge="1">
          <mxGeometry relative="1" as="geometry">
            <mxPoint x="258" y="177.5" as="sourcePoint" />
            <mxPoint x="430" y="178" as="targetPoint" />
          </mxGeometry>
        </mxCell>
        <mxCell id="L4blVacPG_ALHI0_2lzW-17" value="GRANT &amp;lt;privilege&amp;gt;&lt;br style=&quot;border-color: var(--border-color);&quot;&gt;TO &amp;lt;role&amp;gt;" style="edgeLabel;resizable=0;html=1;align=center;verticalAlign=middle;fontSize=16;" parent="L4blVacPG_ALHI0_2lzW-16" connectable="0" vertex="1">
          <mxGeometry relative="1" as="geometry">
            <mxPoint x="2" y="28" as="offset" />
          </mxGeometry>
        </mxCell>
        <mxCell id="L4blVacPG_ALHI0_2lzW-23" value="" style="strokeWidth=2;html=1;shape=mxgraph.flowchart.annotation_2;align=left;labelPosition=right;pointerEvents=1;fontSize=16;" parent="1" vertex="1">
          <mxGeometry x="550" y="95.75" width="50" height="164.5" as="geometry" />
        </mxCell>
        <mxCell id="L4blVacPG_ALHI0_2lzW-12" value="Manager&lt;br&gt;(ROLE)" style="text;strokeColor=none;fillColor=none;html=1;align=center;verticalAlign=middle;whiteSpace=wrap;rounded=0;fontSize=16;" parent="1" vertex="1">
          <mxGeometry x="460" y="161" width="60" height="30" as="geometry" />
        </mxCell>
        <mxCell id="L4blVacPG_ALHI0_2lzW-27" value="" style="rounded=1;whiteSpace=wrap;html=1;fontSize=16;" parent="1" vertex="1">
          <mxGeometry x="600" y="67" width="120" height="60" as="geometry" />
        </mxCell>
        <mxCell id="L4blVacPG_ALHI0_2lzW-28" value="" style="rounded=1;whiteSpace=wrap;html=1;fontSize=16;" parent="1" vertex="1">
          <mxGeometry x="600" y="231" width="120" height="60" as="geometry" />
        </mxCell>
        <mxCell id="L4blVacPG_ALHI0_2lzW-29" value="MANAGER - A" style="text;strokeColor=none;fillColor=none;html=1;align=center;verticalAlign=middle;whiteSpace=wrap;rounded=0;fontSize=16;" parent="1" vertex="1">
          <mxGeometry x="606.5" y="85" width="107" height="30" as="geometry" />
        </mxCell>
        <mxCell id="L4blVacPG_ALHI0_2lzW-30" value="MANAGER - B" style="text;strokeColor=none;fillColor=none;html=1;align=center;verticalAlign=middle;whiteSpace=wrap;rounded=0;fontSize=16;" parent="1" vertex="1">
          <mxGeometry x="606.5" y="244" width="109.5" height="30" as="geometry" />
        </mxCell>
        <mxCell id="L4blVacPG_ALHI0_2lzW-31" value="USER" style="text;strokeColor=none;fillColor=none;html=1;align=center;verticalAlign=middle;whiteSpace=wrap;rounded=0;fontSize=16;" parent="1" vertex="1">
          <mxGeometry x="630" y="163" width="60" height="30" as="geometry" />
        </mxCell>
      </root>
    </mxGraphModel>
  </diagram>
  <diagram id="U9dtT9ersGWB6scOrgZ3" name="Page-2">
    <mxGraphModel dx="1426" dy="751" grid="1" gridSize="10" guides="1" tooltips="1" connect="1" arrows="1" fold="1" page="1" pageScale="1" pageWidth="850" pageHeight="1100" math="0" shadow="0">
      <root>
        <mxCell id="0" />
        <mxCell id="1" parent="0" />
        <mxCell id="Zbyn5ykXSvWK38zKn9Ox-1" value="" style="rounded=1;whiteSpace=wrap;html=1;dashed=1;" parent="1" vertex="1">
          <mxGeometry x="120" y="240" width="600" height="200" as="geometry" />
        </mxCell>
        <mxCell id="5L-NYrW7F97HJQ0hMNdp-1" value="Federated Environment" style="text;html=1;strokeColor=none;fillColor=none;align=center;verticalAlign=middle;whiteSpace=wrap;rounded=0;" vertex="1" parent="1">
          <mxGeometry x="570" y="410" width="140" height="30" as="geometry" />
        </mxCell>
        <mxCell id="5L-NYrW7F97HJQ0hMNdp-2" value="Service Provider (SP)&lt;br&gt;Snowflake" style="rounded=1;whiteSpace=wrap;html=1;" vertex="1" parent="1">
          <mxGeometry x="190" y="280" width="130" height="120" as="geometry" />
        </mxCell>
        <mxCell id="5L-NYrW7F97HJQ0hMNdp-3" value="Identity Provider (IdP)&lt;br&gt;Okta/Azure ADFS" style="rounded=1;whiteSpace=wrap;html=1;" vertex="1" parent="1">
          <mxGeometry x="530" y="280" width="130" height="120" as="geometry" />
        </mxCell>
        <mxCell id="5L-NYrW7F97HJQ0hMNdp-4" value="USER" style="text;html=1;strokeColor=none;fillColor=none;align=center;verticalAlign=middle;whiteSpace=wrap;rounded=0;" vertex="1" parent="1">
          <mxGeometry x="555" y="170" width="80" height="30" as="geometry" />
        </mxCell>
        <mxCell id="5L-NYrW7F97HJQ0hMNdp-6" value="" style="endArrow=classic;html=1;rounded=0;exitX=0.5;exitY=1;exitDx=0;exitDy=0;entryX=0.5;entryY=0;entryDx=0;entryDy=0;" edge="1" parent="1" source="5L-NYrW7F97HJQ0hMNdp-4" target="5L-NYrW7F97HJQ0hMNdp-3">
          <mxGeometry relative="1" as="geometry">
            <mxPoint x="370" y="270" as="sourcePoint" />
            <mxPoint x="470" y="270" as="targetPoint" />
            <Array as="points" />
          </mxGeometry>
        </mxCell>
        <mxCell id="5L-NYrW7F97HJQ0hMNdp-7" value="credentials" style="edgeLabel;resizable=0;html=1;align=center;verticalAlign=middle;" connectable="0" vertex="1" parent="5L-NYrW7F97HJQ0hMNdp-6">
          <mxGeometry relative="1" as="geometry">
            <mxPoint y="-20" as="offset" />
          </mxGeometry>
        </mxCell>
        <mxCell id="5L-NYrW7F97HJQ0hMNdp-8" value="" style="endArrow=classic;html=1;rounded=0;entryX=1;entryY=0.5;entryDx=0;entryDy=0;exitX=0;exitY=0.5;exitDx=0;exitDy=0;" edge="1" parent="1" source="5L-NYrW7F97HJQ0hMNdp-3" target="5L-NYrW7F97HJQ0hMNdp-2">
          <mxGeometry relative="1" as="geometry">
            <mxPoint x="370" y="270" as="sourcePoint" />
            <mxPoint x="470" y="270" as="targetPoint" />
          </mxGeometry>
        </mxCell>
        <mxCell id="5L-NYrW7F97HJQ0hMNdp-9" value="access" style="edgeLabel;resizable=0;html=1;align=center;verticalAlign=middle;" connectable="0" vertex="1" parent="5L-NYrW7F97HJQ0hMNdp-8">
          <mxGeometry relative="1" as="geometry" />
        </mxCell>
      </root>
    </mxGraphModel>
  </diagram>
</mxfile>
